<svg xmlns="http://www.w3.org/2000/svg" width="30.078" height="29.261" viewBox="0 0 30.078 29.261">
  <path id="Icon_metro-bubble" data-name="Icon metro-bubble" d="M17.995,3.856c8.519,0,15.424,6.162,15.424,13.762,0,4.538-2.922,9.914-8.681,12.713-5.858,2.437-5.364,2-8.7,2.544a37.944,37.944,0,0,1-7.1.106,26.537,26.537,0,0,1-3.409-.359c-1.128-.18.124-.9.124-.9,2.065-1.111,3.26-1.762,3.285-3.412s-5.6-6.836-5.6-11.155c0-7.6,6.135-13.3,14.653-13.3Z" transform="translate(-3.342 -3.856)" fill="#ec9085"/>
</svg>
