<svg xmlns="http://www.w3.org/2000/svg" width="51.252" height="80.186" viewBox="0 0 51.252 80.186">
  <g id="Group_14" data-name="Group 14" transform="translate(-476.698 -118.809)">
    <path id="Icon_awesome-birthday-cake" data-name="Icon awesome-birthday-cake" d="M46.977,68.531c-2.977,0-3.321-5.083-7.914-5.083-4.614,0-4.974,5.083-7.941,5.083-2.942,0-3.341-5.083-7.941-5.083-4.551,0-5.016,5.083-7.914,5.083-2.99,0-3.315-5.083-7.941-5.083S2.371,68.531-.614,68.531V55.823c0-4.21,2.284-7.625,5.1-7.625H17.606V35.6H29.03V48.2H41.878c2.815,0,5.1,3.415,5.1,7.625Zm-3.141,21.4c-6.77,3.05-11.527,1.212-20.655,1.212-8.47,0-14.76,2.025-20.709-2.356S-.614,73.615-.614,73.615c4.606,0,4.968-5.083,7.941-5.083s3.32,5.083,7.941,5.083c4.551,0,5.016-5.083,7.914-5.083,2.99,0,3.314,5.083,7.941,5.083,4.606,0,4.968-5.083,7.941-5.083,2.92,0,3.32,5.083,7.914,5.083C46.977,73.615,50.607,86.877,43.836,89.927Z" transform="translate(479 106.407)" fill="none" stroke="#3f6344" stroke-width="2"/>
    <g id="Icon_ionic-ios-paw" data-name="Icon ionic-ios-paw" transform="translate(491.71 119.809)">
      <path id="Path_37" data-name="Path 37" d="M22.542,5.625Z" transform="translate(-8.956 -4.073)" fill="none" stroke="#3f6344" stroke-width="2"/>
      <path id="Path_38" data-name="Path 38" d="M28.755,11.843a1.094,1.094,0,0,0-.412-.079h-.015a2.592,2.592,0,0,0-2.017,1.806c-.525,1.292-.283,2.614.544,2.954a1.094,1.094,0,0,0,.412.079A2.58,2.58,0,0,0,29.3,14.8C29.824,13.5,29.579,12.183,28.755,11.843Z" transform="translate(-8.351 -6.427)" fill="none" stroke="#3f6344" stroke-width="2"/>
      <path id="Path_39" data-name="Path 39" d="M16.81,19.152c-1.2-1.89-1.725-2.6-3.1-2.6s-1.9.715-3.108,2.6C9.567,20.765,7.482,20.9,6.962,22.269a1.986,1.986,0,0,0-.156.789,2.014,2.014,0,0,0,2.011,2.016c1.378,0,3.255-1.04,4.894-1.04s3.507,1.04,4.885,1.04A2.01,2.01,0,0,0,20.6,23.058a1.989,1.989,0,0,0-.16-.789C19.923,20.895,17.842,20.765,16.81,19.152Z" transform="translate(-2.92 -8.263)" fill="none" stroke="#3f6344" stroke-width="2"/>
      <path id="Path_40" data-name="Path 40" d="M12.784,10.961a1.08,1.08,0,0,0,.16-.012c.939-.136,1.525-1.436,1.312-2.9-.2-1.384-1.039-2.419-1.918-2.419a1.08,1.08,0,0,0-.16.012c-.939.136-1.525,1.436-1.312,2.9C11.066,9.922,11.9,10.961,12.784,10.961Z" transform="translate(-5.38 -5.625)" fill="none" stroke="#3f6344" stroke-width="2"/>
      <path id="Path_41" data-name="Path 41" d="M6.358,16.738c.906-.355,1.171-1.737.6-3.088a2.794,2.794,0,0,0-2.231-1.887,1.25,1.25,0,0,0-.451.083c-.906.355-1.171,1.737-.6,3.088a2.794,2.794,0,0,0,2.231,1.887A1.25,1.25,0,0,0,6.358,16.738Z" transform="translate(-3.372 -7.219)" fill="none" stroke="#3f6344" stroke-width="2"/>
      <path id="Path_42" data-name="Path 42" d="M12.338,10.962a1.08,1.08,0,0,1-.16-.012c-.939-.136-1.525-1.437-1.312-2.905.2-1.384,1.039-2.42,1.918-2.42a1.08,1.08,0,0,1,.16.012c.939.136,1.525,1.437,1.312,2.905C14.055,9.922,13.217,10.962,12.338,10.962Z" transform="translate(1.979 -5.625)" fill="none" stroke="#3f6344" stroke-width="2"/>
    </g>
  </g>
</svg>
