<svg xmlns="http://www.w3.org/2000/svg" width="100" height="100" viewBox="0 0 100 100">
  <g id="Group_17" data-name="Group 17" transform="translate(-283 -1680)">
    <g id="Path_45" data-name="Path 45" transform="translate(283 1680)" fill="none">
      <path d="M50,0A50,50,0,1,1,0,50,50,50,0,0,1,50,0Z" stroke="none"/>
      <path d="M 50 3 C 43.65372467041016 3 37.49886322021484 4.242263793945312 31.70639801025391 6.6922607421875 C 26.11003112792969 9.059326171875 21.08335113525391 12.44861602783203 16.76598358154297 16.76598358154297 C 12.44861602783203 21.08335113525391 9.059326171875 26.11003112792969 6.6922607421875 31.70639801025391 C 4.242263793945312 37.49886322021484 3 43.65372467041016 3 50 C 3 56.34627532958984 4.242263793945312 62.50113677978516 6.6922607421875 68.29360198974609 C 9.059326171875 73.88996887207031 12.44861602783203 78.91664886474609 16.76598358154297 83.23401641845703 C 21.08335113525391 87.55138397216797 26.11003112792969 90.940673828125 31.70639801025391 93.3077392578125 C 37.49886322021484 95.75773620605469 43.65372467041016 97 50 97 C 56.34627532958984 97 62.50113677978516 95.75773620605469 68.29360198974609 93.3077392578125 C 73.88996887207031 90.940673828125 78.91664886474609 87.55138397216797 83.23401641845703 83.23401641845703 C 87.55138397216797 78.91664886474609 90.940673828125 73.88996887207031 93.3077392578125 68.29360198974609 C 95.75773620605469 62.50113677978516 97 56.34627532958984 97 50 C 97 43.65372467041016 95.75773620605469 37.49886322021484 93.3077392578125 31.70639801025391 C 90.940673828125 26.11003112792969 87.55138397216797 21.08335113525391 83.23401641845703 16.76598358154297 C 78.91664886474609 12.44861602783203 73.88996887207031 9.059326171875 68.29360198974609 6.6922607421875 C 62.50113677978516 4.242263793945312 56.34627532958984 3 50 3 M 50 0 C 77.61422729492188 0 100 22.38577270507812 100 50 C 100 77.61422729492188 77.61422729492188 100 50 100 C 22.38577270507812 100 0 77.61422729492188 0 50 C 0 22.38577270507812 22.38577270507812 0 50 0 Z" stroke="none" fill="#3f6344"/>
    </g>
    <g id="Group_16" data-name="Group 16" transform="translate(317 1689.526)">
      <g id="Group_15" data-name="Group 15" transform="translate(-2 5)">
        <path id="Path_43" data-name="Path 43" d="M336.9,28.467C336.9,18.285,328.87,10,319,10s-17.9,8.285-17.9,18.467a18.293,18.293,0,0,0,15.721,18.325l-.018.1a5.918,5.918,0,0,0-2.313,1.575,3.853,3.853,0,0,0-.441,3.741c.936,3.022,3.608,5.406,4.922,8.293,1.773,3.906-.333,7.768-2.016,11.4-1.755,3.786-2.6,7.573-.117,11.284.45.667,1.674.067,1.233-.6-2.421-3.607-1.215-7.221.477-10.835,1.566-3.352,3.186-6.726,2.223-10.377-.738-2.782-3.051-5.121-4.517-7.655a5.388,5.388,0,0,1-.981-3.8,2.566,2.566,0,0,1,1.2-1.507l-.423,1.934a.679.679,0,0,0,.207.645,1.04,1.04,0,0,0,.729.285h4.742a1.034,1.034,0,0,0,.711-.27.716.716,0,0,0,.225-.63l-.6-3.711A18.341,18.341,0,0,0,336.9,28.467ZM318.116,49.7l.468-2.122c.414-.1.819-.195,1.2-.262a.641.641,0,0,0,.423-.247l.432,2.647-2.52-.015ZM319,45.36c-8.828,0-16-7.573-16-16.885s7.181-16.893,16-16.893,16,7.573,16,16.893C335,37.78,327.826,45.36,319,45.36Z" transform="translate(-301.1 -10)" fill="#3f6344"/>
        <path id="Path_44" data-name="Path 44" d="M381.87,78.144c-6.92-.652-9.458,7.55-9.557,7.9a.794.794,0,0,0,.684.96,1.237,1.237,0,0,0,.234.022.934.934,0,0,0,.918-.6c.018-.075,2.25-7.228,7.5-6.718a.933.933,0,0,0,1.053-.7A.839.839,0,0,0,381.87,78.144Z" transform="translate(-365.879 -73.001)" fill="#3f6344"/>
      </g>
    </g>
  </g>
</svg>
