<svg xmlns="http://www.w3.org/2000/svg" width="100" height="100" viewBox="0 0 100 100">
  <g id="Group_19" data-name="Group 19" transform="translate(-417 -1741)">
    <g id="dog-svgrepo-com" transform="translate(431.569 1659.195)">
      <g id="Group_12" data-name="Group 12" transform="translate(8 99)">
        <g id="Group_11" data-name="Group 11">
          <path id="Path_27" data-name="Path 27" d="M70.158,232.684a1.094,1.094,0,0,0,.983-1.954c-.159-.082-3.9-2.072-4.884-7.953a1.094,1.094,0,0,0-2.094-.226c-2.373,5.934,2.1,12.754,2.293,13.042a1.094,1.094,0,0,0,1.821-1.213,18.443,18.443,0,0,1-2.449-6.207A11.375,11.375,0,0,0,70.158,232.684Z" transform="translate(-59.712 -193.433)" fill="#3f6344"/>
          <path id="Path_28" data-name="Path 28" d="M94.3,309.367a1.093,1.093,0,1,0-.429-2.143c-2.195.439-6.347,2.828-6.347,8.726a23.062,23.062,0,0,0,1.589,8.9c-2.394.465-3.776,1.97-3.776,4.222,0,2.535,2.3,4.374,5.467,4.374h1.093a4.1,4.1,0,0,0,3.049-1.513,1.094,1.094,0,0,0-1.723-1.347,1.941,1.941,0,0,1-1.325.674H90.8c-1.63,0-3.28-.751-3.28-2.187,0-.541,0-2.187,3.28-2.187a1.1,1.1,0,0,0,.913-1.695c-.021-.032-2.007-3.147-2.007-9.24C89.707,310.4,94.114,309.406,94.3,309.367Z" transform="translate(-78.772 -267.836)" fill="#3f6344"/>
          <path id="Path_29" data-name="Path 29" d="M355.929,324.853a23.061,23.061,0,0,0,1.589-8.9c0-5.9-4.152-8.288-6.347-8.726a1.093,1.093,0,1,0-.429,2.143c.188.038,4.588.983,4.588,6.583,0,6.093-1.986,9.208-2,9.234a1.093,1.093,0,0,0,.91,1.7c3.28,0,3.28,1.646,3.28,2.187,0,1.436-1.65,2.187-3.28,2.187h-1.093a1.956,1.956,0,0,1-1.332-.681,1.093,1.093,0,0,0-1.717,1.355,4.1,4.1,0,0,0,3.049,1.513h1.093c3.169,0,5.467-1.839,5.467-4.374C359.7,326.823,358.322,325.317,355.929,324.853Z" transform="translate(-309.404 -267.839)" fill="#3f6344"/>
          <path id="Path_30" data-name="Path 30" d="M188.348,354.539l1.988-11.931a1.093,1.093,0,0,0-2.156-.361l-2.035,12.209h-.167a1.093,1.093,0,1,0,0,2.187h1.093c3.28,0,3.28,1.646,3.28,2.187,0,1.436-1.65,2.187-3.28,2.187h-1.093a3.284,3.284,0,0,1-3.28-3.28V342.427a1.093,1.093,0,0,0-2.187,0v15.309a3.285,3.285,0,0,1-3.28,3.28h-1.093c-1.63,0-3.28-.751-3.28-2.187,0-.541,0-2.187,3.28-2.187h1.093a1.093,1.093,0,1,0,0-2.187h-.167l-2.035-12.209a1.093,1.093,0,0,0-2.156.361l1.988,11.931c-2.648.366-4.19,1.913-4.19,4.291,0,2.535,2.3,4.374,5.467,4.374h1.093a5.464,5.464,0,0,0,4.374-2.19,5.463,5.463,0,0,0,4.374,2.19h1.093c3.169,0,5.467-1.839,5.467-4.374C192.538,356.451,191,354.905,188.348,354.539Z" transform="translate(-153.173 -297.594)" fill="#3f6344"/>
          <path id="Path_31" data-name="Path 31" d="M89.785,9.353C87.381,4.545,81.591,0,77.872,0c-2.112,0-5.745,3.274-7.57,5.058a11.863,11.863,0,0,0-15.477,0C53,3.274,49.366,0,47.255,0c-3.719,0-9.509,4.545-11.912,9.353a11.969,11.969,0,0,0-1.209,4.863A5.474,5.474,0,0,0,39.6,19.683c2.717,0,3.933-1.787,4.909-3.223.119-.174.237-.349.375-.545l4.374-6.561a1.094,1.094,0,1,0-1.82-1.214l-4.357,6.537c-.129.183-.255.367-.381.552-.983,1.448-1.613,2.266-3.1,2.266a3.284,3.284,0,0,1-3.28-3.28A9.736,9.736,0,0,1,37.3,10.33c2.154-4.309,7.362-8.143,9.956-8.143.933,0,3.709,2.172,6.024,4.422-4.108,4.776-6.024,12.773-6.024,20.728,0,10.1,4.435,14.215,15.309,14.215s15.309-4.119,15.309-14.215c0-7.956-1.916-15.952-6.024-20.728,2.315-2.25,5.09-4.422,6.024-4.422,2.594,0,7.8,3.834,9.957,8.143a9.751,9.751,0,0,1,.978,3.885,3.284,3.284,0,0,1-3.28,3.28c-1.541,0-2.149-.809-3.174-2.359l-4.664-7a1.094,1.094,0,0,0-1.82,1.214l4.659,6.99c1.037,1.565,2.21,3.338,5,3.338a5.474,5.474,0,0,0,5.467-5.467A11.969,11.969,0,0,0,89.785,9.353Zm-14.1,17.984c0,8.881-3.435,12.028-13.122,12.028S49.442,36.218,49.442,27.337c0-11.43,4.058-22.963,13.122-22.963S75.685,15.907,75.685,27.337Z" transform="translate(-34.133)" fill="#3f6344"/>
          <path id="Path_32" data-name="Path 32" d="M209.506,195.98c-.187.364-.917.5-1.215.5a3.645,3.645,0,0,1-3.081-2.343c1.8-.407,3.081-1.626,3.081-3.124,0-1.839-1.921-3.28-4.374-3.28s-4.374,1.441-4.374,3.28c0,1.5,1.284,2.717,3.081,3.124a3.641,3.641,0,0,1-3.074,2.343c-.314,0-1.029-.137-1.229-.513a1.093,1.093,0,0,0-1.931,1.026,3.684,3.684,0,0,0,3.153,1.674,5.642,5.642,0,0,0,4.374-2.358,5.642,5.642,0,0,0,4.374,2.358,3.665,3.665,0,0,0,3.159-1.686,1.094,1.094,0,0,0-1.944-1Zm-5.589-3.873c-1.314,0-2.187-.658-2.187-1.093s.873-1.093,2.187-1.093c1.335,0,2.187.647,2.187,1.093S205.253,192.107,203.917,192.107Z" transform="translate(-175.487 -163.676)" fill="#3f6344"/>
          <path id="Path_34" data-name="Path 34" d="M206.44,131.28a1.64,1.64,0,1,0-1.64-1.64A1.642,1.642,0,0,0,206.44,131.28Z" transform="translate(-182.93 -111.598)" fill="#3f6344"/>
          <path id="Path_35" data-name="Path 35" d="M35.375,20.17a2.338,2.338,0,0,1,2.143-1.628,2.207,2.207,0,0,1,2.07,1.628" transform="translate(-3.787 -1.313)" fill="none" stroke="#556958" stroke-linecap="round" stroke-width="2"/>
        </g>
      </g>
    </g>
    <g id="Group_18" data-name="Group 18" transform="translate(134 61)">
      <g id="Path_45" data-name="Path 45" transform="translate(283 1680)" fill="none">
        <path d="M50,0A50,50,0,1,1,0,50,50,50,0,0,1,50,0Z" stroke="none"/>
        <path d="M 50 3 C 43.65372467041016 3 37.49886322021484 4.242263793945312 31.70639801025391 6.6922607421875 C 26.11003112792969 9.059326171875 21.08335113525391 12.44861602783203 16.76598358154297 16.76598358154297 C 12.44861602783203 21.08335113525391 9.059326171875 26.11003112792969 6.6922607421875 31.70639801025391 C 4.242263793945312 37.49886322021484 3 43.65372467041016 3 50 C 3 56.34627532958984 4.242263793945312 62.50113677978516 6.6922607421875 68.29360198974609 C 9.059326171875 73.88996887207031 12.44861602783203 78.91664886474609 16.76598358154297 83.23401641845703 C 21.08335113525391 87.55138397216797 26.11003112792969 90.940673828125 31.70639801025391 93.3077392578125 C 37.49886322021484 95.75773620605469 43.65372467041016 97 50 97 C 56.34627532958984 97 62.50113677978516 95.75773620605469 68.29360198974609 93.3077392578125 C 73.88996887207031 90.940673828125 78.91664886474609 87.55138397216797 83.23401641845703 83.23401641845703 C 87.55138397216797 78.91664886474609 90.940673828125 73.88996887207031 93.3077392578125 68.29360198974609 C 95.75773620605469 62.50113677978516 97 56.34627532958984 97 50 C 97 43.65372467041016 95.75773620605469 37.49886322021484 93.3077392578125 31.70639801025391 C 90.940673828125 26.11003112792969 87.55138397216797 21.08335113525391 83.23401641845703 16.76598358154297 C 78.91664886474609 12.44861602783203 73.88996887207031 9.059326171875 68.29360198974609 6.6922607421875 C 62.50113677978516 4.242263793945312 56.34627532958984 3 50 3 M 50 0 C 77.61422729492188 0 100 22.38577270507812 100 50 C 100 77.61422729492188 77.61422729492188 100 50 100 C 22.38577270507812 100 0 77.61422729492188 0 50 C 0 22.38577270507812 22.38577270507812 0 50 0 Z" stroke="none" fill="#3f6344"/>
      </g>
    </g>
  </g>
</svg>
