<svg xmlns="http://www.w3.org/2000/svg" width="336.419" height="327.055" viewBox="0 0 336.419 327.055">
  <g id="Group_26" data-name="Group 26" transform="translate(-1488.077 -1184.296)">
    <g id="Group_25" data-name="Group 25" transform="translate(1566.848 1276.671)">
      <g id="Icon_feather-home" data-name="Icon feather-home">
        <path id="Icon_metro-bubble" data-name="Icon metro-bubble" d="M167.259,3.866c95.275,0,172.5,68.914,172.5,153.911,0,50.752-32.679,110.876-97.086,142.18-65.515,27.255-59.99,22.368-97.3,28.452a424.362,424.362,0,0,1-79.4,1.185,296.789,296.789,0,0,1-38.126-4.015c-12.615-2.013,1.387-10.065,1.387-10.065,23.095-12.425,36.459-19.706,36.739-38.159S3.338,200.9,3.338,152.6c0-85,68.613-148.744,163.876-148.744Z" transform="translate(-82.109 -96.23)" fill="#db7566"/>
        <path id="Path_46" data-name="Path 46" d="M4.5,62.053,80.425,3,156.35,60.242V154.85a16.872,16.872,0,0,1-16.872,16.872H21.372A16.872,16.872,0,0,1,4.5,154.85Z" transform="translate(-4.5 -3)" fill="none" stroke="#fff" stroke-linecap="round" stroke-linejoin="round" stroke-width="4"/>
        <path id="Path_47" data-name="Path 47" d="M13.5,102.361V18H64.117v84.361" transform="translate(37.117 66.361)" fill="none" stroke="#fff" stroke-linecap="round" stroke-linejoin="round" stroke-width="4"/>
      </g>
      <rect id="Rectangle_110" data-name="Rectangle 110" width="68" height="109" rx="34" transform="translate(119.152 80.329)" fill="#db7566"/>
      <g id="dog-svgrepo-com" transform="translate(111.677 77.26)">
        <g id="Group_12" data-name="Group 12" transform="translate(0 0)">
          <g id="Group_11" data-name="Group 11">
            <path id="Path_27" data-name="Path 27" d="M2.3,15.771A1.594,1.594,0,0,1,.868,12.923C1.1,12.8,6.556,9.9,7.986,1.331A1.594,1.594,0,0,1,11.038,1C14.5,9.651,7.975,19.591,7.7,20.01a1.594,1.594,0,0,1-2.654-1.768A26.881,26.881,0,0,0,8.613,9.2,16.579,16.579,0,0,1,2.3,15.771Z" transform="translate(65.348 41.437)" fill="#fff"/>
            <path id="Path_28" data-name="Path 28" d="M1.282,3.155A1.593,1.593,0,1,1,1.907.032c3.2.639,9.25,4.121,9.25,12.718A33.613,33.613,0,0,1,8.841,25.721c3.489.677,5.5,2.872,5.5,6.153,0,3.694-3.352,6.375-7.969,6.375H4.782A5.972,5.972,0,0,1,.339,36.044,1.594,1.594,0,0,1,2.85,34.08a2.829,2.829,0,0,0,1.932.982H6.376c2.376,0,4.781-1.095,4.781-3.187,0-.789,0-3.188-4.781-3.188a1.6,1.6,0,0,1-1.331-2.47c.03-.046,2.925-4.587,2.925-13.467C7.969,4.668,1.547,3.213,1.282,3.155Z" transform="translate(58.967 57.375)" fill="#fff"/>
            <path id="Path_29" data-name="Path 29" d="M5.5,25.72A33.612,33.612,0,0,1,3.187,12.749c0-8.6,6.051-12.079,9.25-12.718a1.593,1.593,0,1,1,.625,3.124c-.274.056-6.687,1.433-6.687,9.594,0,8.88,2.894,13.421,2.92,13.459a1.594,1.594,0,0,1-1.326,2.479c-4.781,0-4.781,2.4-4.781,3.187,0,2.093,2.4,3.188,4.781,3.188H9.562a2.851,2.851,0,0,0,1.941-.993,1.594,1.594,0,0,1,2.5,1.975,5.972,5.972,0,0,1-4.443,2.206H7.969C3.35,38.249,0,35.568,0,31.874,0,28.592,2.014,26.4,5.5,25.72Z" transform="translate(9.562 57.376)" fill="#fff"/>
            <path id="Path_30" data-name="Path 30" d="M6.107,19.246,3.21,1.857a1.593,1.593,0,0,1,3.143-.526L9.318,19.125h.244a1.594,1.594,0,0,1,0,3.187H7.969c-4.781,0-4.781,2.4-4.781,3.188,0,2.093,2.405,3.188,4.781,3.188H9.562a4.787,4.787,0,0,0,4.781-4.781V1.594a1.594,1.594,0,0,1,3.187,0V23.906a4.787,4.787,0,0,0,4.781,4.781h1.594c2.376,0,4.781-1.095,4.781-3.188,0-.789,0-3.187-4.781-3.187H22.312a1.594,1.594,0,0,1,0-3.187h.244L25.522,1.331a1.593,1.593,0,0,1,3.143.526l-2.9,17.389c3.86.534,6.107,2.788,6.107,6.254,0,3.694-3.352,6.375-7.969,6.375H22.312a7.963,7.963,0,0,1-6.375-3.192,7.962,7.962,0,0,1-6.375,3.192H7.969C3.35,31.875,0,29.194,0,25.5,0,22.033,2.247,19.78,6.107,19.246Z" transform="translate(25.5 63.75)" fill="#fff"/>
            <path id="Path_31" data-name="Path 31" d="M1.763,13.631C5.266,6.624,13.7,0,19.125,0,22.2,0,27.5,4.772,30.158,7.373a17.291,17.291,0,0,1,22.558,0C55.376,4.772,60.672,0,63.75,0c5.42,0,13.859,6.624,17.362,13.631a17.445,17.445,0,0,1,1.763,7.087,7.978,7.978,0,0,1-7.969,7.969c-3.96,0-5.733-2.6-7.154-4.7-.174-.253-.346-.508-.547-.794L60.83,13.635a1.594,1.594,0,1,1,2.652-1.769l6.351,9.527c.188.266.371.535.555.8,1.433,2.11,2.351,3.3,4.518,3.3a4.787,4.787,0,0,0,4.781-4.781,14.19,14.19,0,0,0-1.426-5.663C75.121,8.775,67.53,3.187,63.75,3.187c-1.359,0-5.406,3.165-8.78,6.445,5.988,6.962,8.78,18.617,8.78,30.211,0,14.715-6.464,20.719-22.312,20.719s-22.312-6-22.312-20.719c0-11.6,2.792-23.249,8.78-30.211-3.374-3.28-7.419-6.445-8.78-6.445-3.78,0-11.371,5.588-14.513,11.869a14.213,14.213,0,0,0-1.425,5.663A4.787,4.787,0,0,0,7.969,25.5c2.245,0,3.132-1.179,4.627-3.438l6.8-10.2a1.594,1.594,0,0,1,2.652,1.769L15.254,23.822c-1.511,2.281-3.221,4.866-7.285,4.866A7.978,7.978,0,0,1,0,20.719,17.445,17.445,0,0,1,1.763,13.631Zm20.55,26.212c0,12.944,5.006,17.531,19.125,17.531s19.125-4.587,19.125-17.531c0-16.659-5.914-33.469-19.125-33.469S22.312,23.184,22.312,39.843Z" fill="#fff"/>
            <path id="Path_32" data-name="Path 32" d="M6.375,10.557C3.755,9.965,0,6.965,0,4.781,0,2.1,2.8,0,6.375,0S12.75,2.1,12.75,4.781c0,2.184-3.755,5.183-6.375,5.776C6.633,9.686,8.323,10.083,6.375,10.557Zm0-4.182c1.916,0,3.187-.959,3.187-1.594S8.29,3.188,6.375,3.188c-1.946,0-3.188.944-3.188,1.594S4.429,6.375,6.375,6.375Z" transform="translate(35.062 35.062)" fill="#fff"/>
            <path id="Path_34" data-name="Path 34" d="M2.391,4.781A2.391,2.391,0,1,1,4.781,2.391,2.394,2.394,0,0,1,2.391,4.781Z" transform="translate(32.922 23.906)" fill="#fff"/>
            <path id="Path_48" data-name="Path 48" d="M2.391,4.781A2.391,2.391,0,1,1,4.781,2.391,2.394,2.394,0,0,1,2.391,4.781Z" transform="translate(46.218 23.906)" fill="#fff"/>
          </g>
        </g>
      </g>
    </g>
    <g id="Group_23" data-name="Group 23" transform="translate(1523.552 1291.438) rotate(-39)">
      <text id="Hund" transform="translate(50 43)" fill="#fff" font-size="41" font-family="Futura-Medium, Futura" font-weight="500"><tspan x="-49.739" y="0">Hund</tspan></text>
    </g>
    <g id="Group_24" data-name="Group 24" transform="translate(1651.443 1199.622) rotate(39)">
      <text id="söker_hem" data-name="söker hem" transform="translate(95 43)" fill="#fff" font-size="41" font-family="Futura-Medium, Futura" font-weight="500"><tspan x="-94.652" y="0">söker hem</tspan></text>
    </g>
  </g>
</svg>
