<svg xmlns="http://www.w3.org/2000/svg" width="116.9" height="113.646" viewBox="0 0 116.9 113.646">
  <path id="Icon_metro-bubble" data-name="Icon metro-bubble" d="M60.3,3.859c33.106,0,59.94,23.947,59.94,53.482,0,17.635-11.355,38.528-33.736,49.4-22.765,9.471-20.845,7.772-33.81,9.886a147.458,147.458,0,0,1-27.592.412,103.13,103.13,0,0,1-13.248-1.4c-4.384-.7.482-3.5.482-3.5C20.359,107.833,25,105.3,25.1,98.891S3.338,72.325,3.338,55.541c0-29.535,23.842-51.686,56.944-51.686Z" transform="translate(-3.338 -3.855)" fill="#db7566"/>
</svg>
