<svg xmlns="http://www.w3.org/2000/svg" width="73.224" height="66.244" viewBox="0 0 73.224 66.244">
  <path id="Exclusion_1" data-name="Exclusion 1" d="M2046.612-14782.757h0c-.044-.03-4.477-3.045-10.125-7.666-5.222-4.272-12.6-10.844-18.074-17.887a42.854,42.854,0,0,1-6.292-11.374,32.007,32.007,0,0,1-2.122-10.6,18.043,18.043,0,0,1,5.772-13.177,20.443,20.443,0,0,1,13.945-5.538h.175a20.749,20.749,0,0,1,9.648,2.38,19.938,19.938,0,0,1,7.073,6.232,19.948,19.948,0,0,1,7.073-6.232,20.749,20.749,0,0,1,9.648-2.38h.175a20.437,20.437,0,0,1,13.943,5.538,18.047,18.047,0,0,1,5.771,13.177,32.027,32.027,0,0,1-2.12,10.6,42.813,42.813,0,0,1-6.291,11.374c-5.477,7.043-12.852,13.614-18.074,17.887-5.647,4.621-10.081,7.636-10.125,7.666Zm.011-17.97a21.594,21.594,0,0,1,6.091,1.275l.009,0a18.872,18.872,0,0,0,5.136,1.118,4.63,4.63,0,0,0,4.614-4.636,4.6,4.6,0,0,0-.369-1.815c-.605-1.6-2.156-2.481-3.8-3.415a12.014,12.014,0,0,1-4.557-3.755,24.2,24.2,0,0,0-3.419-4.62,5.063,5.063,0,0,0-3.718-1.361c-3.2,0-4.432,1.727-7.148,5.981a12.057,12.057,0,0,1-4.565,3.76l-.006,0c-1.641.933-3.191,1.813-3.8,3.407a4.6,4.6,0,0,0-.358,1.815,4.636,4.636,0,0,0,4.625,4.636,18.977,18.977,0,0,0,5.152-1.12A21.663,21.663,0,0,1,2046.623-14800.727Zm17.437-24c-2.01.03-4.2,1.99-5.325,4.766-1.384,3.4-.74,6.9,1.435,7.8a2.936,2.936,0,0,0,1.088.208c2.025,0,4.235-1.96,5.374-4.766,1.372-3.4.723-6.9-1.446-7.8a2.936,2.936,0,0,0-1.088-.208Zm-34.937,0a2.938,2.938,0,0,0-1.084.208c-2.174.895-2.819,4.392-1.438,7.8,1.139,2.806,3.349,4.766,5.374,4.766a2.935,2.935,0,0,0,1.088-.208c2.175-.9,2.819-4.393,1.435-7.8C2033.358-14822.762,2031.148-14824.722,2029.123-14824.722Zm23.9-8.694a4,4,0,0,0-3.022,1.72,8.99,8.99,0,0,0-1.744,4.291c-.528,3.641.935,6.879,3.261,7.219a2.391,2.391,0,0,0,.4.029,4,4,0,0,0,3.023-1.72,8.989,8.989,0,0,0,1.743-4.291c.527-3.646-.936-6.89-3.261-7.229a2.286,2.286,0,0,0-.358-.03v.012Zm-12.819-.012a2.841,2.841,0,0,0-.4.03c-2.326.338-3.789,3.577-3.261,7.222a9.029,9.029,0,0,0,1.75,4.291,3.994,3.994,0,0,0,3.013,1.721,2.841,2.841,0,0,0,.4-.03,3.682,3.682,0,0,0,2.705-2.368,8.877,8.877,0,0,0,.556-4.851,9.031,9.031,0,0,0-1.748-4.3A3.992,3.992,0,0,0,2040.2-14833.428Z" transform="translate(-2009.998 14849.001)" fill="#fff"/>
</svg>
