<svg xmlns="http://www.w3.org/2000/svg" width="49.088" height="49.088" viewBox="0 0 49.088 49.088">
  <g id="Group_21" data-name="Group 21" transform="translate(-552 -134.912)">
    <g id="Icon_ionic-ios-paw" data-name="Icon ionic-ios-paw" transform="translate(560.799 146.163)">
      <path id="Path_37" data-name="Path 37" d="M22.542,5.625Z" transform="translate(-1.736 -3.195)" fill="none" stroke="#3f6344" stroke-width="2"/>
      <path id="Path_38" data-name="Path 38" d="M30.295,11.887a1.713,1.713,0,0,0-.645-.124h-.024c-1.165.018-2.472,1.136-3.158,2.827-.822,2.023-.444,4.093.852,4.625a1.713,1.713,0,0,0,.645.124c1.171,0,2.5-1.124,3.188-2.827C31.968,14.49,31.584,12.42,30.295,11.887Z" transform="translate(-0.38 -3.408)" fill="none" stroke="#3f6344" stroke-width="2"/>
      <path id="Path_39" data-name="Path 39" d="M22.47,20.624c-1.887-2.959-2.7-4.072-4.859-4.072s-2.979,1.12-4.866,4.072c-1.615,2.525-4.88,2.735-5.694,4.88a3.11,3.11,0,0,0-.244,1.235,3.153,3.153,0,0,0,3.149,3.156c2.158,0,5.1-1.629,7.662-1.629s5.49,1.629,7.649,1.629a3.147,3.147,0,0,0,3.142-3.156,3.114,3.114,0,0,0-.251-1.235C27.343,23.352,24.085,23.148,22.47,20.624Z" transform="translate(-1.189 -3.575)" fill="none" stroke="#3f6344" stroke-width="2"/>
      <path id="Path_40" data-name="Path 40" d="M13.893,13.98a1.692,1.692,0,0,0,.251-.019c1.47-.214,2.387-2.249,2.054-4.548-.314-2.167-1.627-3.788-3-3.788a1.692,1.692,0,0,0-.251.019c-1.47.214-2.387,2.249-2.054,4.548C11.2,12.353,12.517,13.98,13.893,13.98Z" transform="translate(-1.203 -5.625)" fill="none" stroke="#3f6344" stroke-width="2"/>
      <path id="Path_41" data-name="Path 41" d="M8.047,19.552c1.419-.556,1.834-2.72.933-4.834-.758-1.78-2.21-2.955-3.493-2.955a1.956,1.956,0,0,0-.706.13c-1.419.556-1.834,2.72-.933,4.834.758,1.78,2.21,2.955,3.493,2.955A1.956,1.956,0,0,0,8.047,19.552Z" transform="translate(-2.546 -4.648)" fill="none" stroke="#3f6344" stroke-width="2"/>
      <path id="Path_42" data-name="Path 42" d="M13.2,13.981a1.692,1.692,0,0,1-.251-.019c-1.47-.214-2.387-2.249-2.054-4.549.314-2.167,1.627-3.788,3-3.788a1.692,1.692,0,0,1,.251.019c1.47.214,2.387,2.249,2.054,4.549C15.885,12.354,14.572,13.981,13.2,13.981Z" transform="translate(8.243 -5.625)" fill="none" stroke="#3f6344" stroke-width="2"/>
    </g>
    <g id="Group_20" data-name="Group 20" transform="translate(175 -1557)">
      <g id="Group_18" data-name="Group 18" transform="translate(94 11.912)">
        <g id="Path_45" data-name="Path 45" transform="translate(283 1680)" fill="none">
          <path d="M24.544,0A24.544,24.544,0,1,1,0,24.544,24.544,24.544,0,0,1,24.544,0Z" stroke="none"/>
          <path d="M 24.54376220703125 2.000003814697266 C 21.49949264526367 2.000003814697266 18.54734230041504 2.595783233642578 15.76932144165039 3.770782470703125 C 13.0850715637207 4.906120300292969 10.67394256591797 6.531890869140625 8.602912902832031 8.602912902832031 C 6.531890869140625 10.67394256591797 4.906120300292969 13.0850715637207 3.770782470703125 15.76932144165039 C 2.595783233642578 18.54734230041504 2.000003814697266 21.49949264526367 2.000003814697266 24.54376220703125 C 2.000003814697266 27.58803176879883 2.595783233642578 30.5401725769043 3.770782470703125 33.31819152832031 C 4.906120300292969 36.0024528503418 6.531890869140625 38.41358184814453 8.602912902832031 40.48460388183594 C 10.67394256591797 42.55563354492188 13.0850715637207 44.18140411376953 15.76932144165039 45.31674194335938 C 18.54734230041504 46.49174118041992 21.49949264526367 47.08752059936523 24.54376220703125 47.08752059936523 C 27.58803176879883 47.08752059936523 30.5401725769043 46.49174118041992 33.31819152832031 45.31674194335938 C 36.0024528503418 44.18140411376953 38.41358184814453 42.55563354492188 40.48460388183594 40.48460388183594 C 42.55563354492188 38.41358184814453 44.18140411376953 36.0024528503418 45.31674194335938 33.31819152832031 C 46.49174118041992 30.5401725769043 47.08752059936523 27.58803176879883 47.08752059936523 24.54376220703125 C 47.08752059936523 21.49949264526367 46.49174118041992 18.54734230041504 45.31674194335938 15.76932144165039 C 44.18140411376953 13.0850715637207 42.55563354492188 10.67394256591797 40.48460388183594 8.602912902832031 C 38.41358184814453 6.531890869140625 36.0024528503418 4.906120300292969 33.31819152832031 3.770782470703125 C 30.5401725769043 2.595783233642578 27.58803176879883 2.000003814697266 24.54376220703125 2.000003814697266 M 24.54376220703125 3.814697265625e-06 C 38.09889984130859 3.814697265625e-06 49.08752059936523 10.98861312866211 49.08752059936523 24.54376220703125 C 49.08752059936523 38.09889984130859 38.09889984130859 49.08752059936523 24.54376220703125 49.08752059936523 C 10.98861312866211 49.08752059936523 3.814697265625e-06 38.09889984130859 3.814697265625e-06 24.54376220703125 C 3.814697265625e-06 10.98861312866211 10.98861312866211 3.814697265625e-06 24.54376220703125 3.814697265625e-06 Z" stroke="none" fill="#3f6344"/>
        </g>
      </g>
    </g>
  </g>
</svg>
