<svg xmlns="http://www.w3.org/2000/svg" width="40.314" height="40.306" viewBox="0 0 40.314 40.306">
  <path id="Icon_awesome-instagram" data-name="Icon awesome-instagram" d="M20.156,12.057A10.334,10.334,0,1,0,30.49,22.391,10.317,10.317,0,0,0,20.156,12.057Zm0,17.052a6.718,6.718,0,1,1,6.718-6.718,6.731,6.731,0,0,1-6.718,6.718ZM33.323,11.634a2.41,2.41,0,1,1-2.41-2.41A2.4,2.4,0,0,1,33.323,11.634Zm6.844,2.446c-.153-3.229-.89-6.089-3.256-8.445S31.7,2.541,28.467,2.379c-3.328-.189-13.3-.189-16.629,0-3.22.153-6.08.89-8.445,3.247S.3,10.842.136,14.071c-.189,3.328-.189,13.3,0,16.629.153,3.229.89,6.089,3.256,8.445S8.608,42.24,11.837,42.4c3.328.189,13.3.189,16.629,0,3.229-.153,6.089-.89,8.445-3.256s3.094-5.216,3.256-8.445c.189-3.328.189-13.293,0-16.621Zm-4.3,20.191A6.8,6.8,0,0,1,32.037,38.1c-2.653,1.052-8.949.809-11.881.809s-9.237.234-11.881-.809a6.8,6.8,0,0,1-3.831-3.831c-1.052-2.653-.809-8.949-.809-11.881S3.4,13.154,4.444,10.51A6.8,6.8,0,0,1,8.276,6.678c2.653-1.052,8.949-.809,11.881-.809s9.237-.234,11.881.809a6.8,6.8,0,0,1,3.831,3.831c1.052,2.653.809,8.949.809,11.881S36.921,31.627,35.868,34.271Z" transform="translate(0.005 -2.238)" fill="#fff"/>
</svg>
